<?xml version="1.0" standalone="no"?>
<!DOCTYPE svg PUBLIC "-//W3C//DTD SVG 20010904//EN"
 "http://www.w3.org/TR/2001/REC-SVG-20010904/DTD/svg10.dtd">
<svg version="1.0" xmlns="http://www.w3.org/2000/svg"
 width="512.000000pt" height="512.000000pt" viewBox="0 0 512.000000 512.000000"
 preserveAspectRatio="xMidYMid meet">
<metadata>
Created by potrace 1.11, written by Peter Selinger 2001-2013
</metadata>
<g transform="translate(0.000000,512.000000) scale(0.100000,-0.100000)"
fill="#000000" stroke="none">
<path d="M160 4954 c0 -4 13 -57 30 -118 32 -121 139 -530 201 -776 50 -195
181 -698 221 -850 16 -63 47 -182 68 -263 l38 -148 -33 -127 c-18 -70 -49
-188 -68 -262 -82 -313 -279 -1073 -282 -1088 -9 -36 -127 -492 -151 -581 -14
-51 -23 -96 -20 -99 5 -4 451 -98 556 -116 14 -2 241 -48 505 -100 264 -53
494 -99 510 -102 17 -3 59 -11 95 -19 36 -8 76 -17 90 -19 14 -2 45 -9 70 -14
25 -6 61 -13 80 -16 19 -3 44 -8 55 -10 46 -10 373 -76 403 -81 21 -3 110 10
235 36 111 22 216 43 232 46 17 2 82 15 145 28 63 13 126 26 140 29 14 2 81
16 150 30 69 14 136 27 150 30 14 2 59 12 100 21 41 9 91 18 110 21 19 3 87
16 150 29 63 14 129 27 145 30 98 17 867 174 871 177 2 2 -12 62 -30 133 -19
72 -75 292 -126 490 -50 198 -102 401 -115 450 -21 78 -201 784 -210 825 -2 8
-20 78 -40 154 -23 90 -34 153 -31 175 4 28 53 247 91 411 17 69 184 799 190
830 2 8 31 134 65 280 34 146 64 276 66 290 4 21 17 77 59 257 5 21 3 23 -32
17 -21 -3 -45 -7 -53 -9 -8 -2 -28 -6 -45 -9 -16 -2 -50 -8 -75 -12 -25 -5
-49 -9 -55 -9 -5 -1 -23 -4 -40 -8 -16 -3 -46 -8 -65 -11 -35 -5 -161 -27
-387 -67 -65 -11 -145 -25 -178 -30 -33 -5 -71 -12 -85 -14 -109 -20 -139 -25
-170 -30 -19 -3 -96 -17 -170 -30 -75 -14 -151 -27 -170 -29 -32 -4 -64 -10
-115 -20 -11 -2 -40 -7 -65 -11 -25 -4 -54 -9 -65 -11 -11 -2 -85 -15 -165
-29 -80 -14 -156 -27 -170 -29 -14 -3 -43 -7 -64 -11 -21 -3 -48 -7 -60 -10
-68 -15 -82 -14 -286 20 -14 2 -38 6 -55 9 -16 3 -73 12 -125 21 -52 9 -108
18 -125 21 -16 2 -55 9 -85 14 -30 5 -71 12 -90 15 -19 3 -46 8 -60 10 -49 8
-935 156 -960 160 -14 2 -68 11 -120 20 -52 9 -106 18 -120 20 -45 7 -394 65
-427 70 -18 3 -33 3 -33 -1z"/>
</g>
</svg>
