<?xml version="1.0" standalone="no"?>
<!DOCTYPE svg PUBLIC "-//W3C//DTD SVG 20010904//EN"
 "http://www.w3.org/TR/2001/REC-SVG-20010904/DTD/svg10.dtd">
<svg version="1.0" xmlns="http://www.w3.org/2000/svg"
 width="512.000000pt" height="512.000000pt" viewBox="0 0 512.000000 512.000000"
 preserveAspectRatio="xMidYMid meet">
<metadata>
Created by potrace 1.11, written by Peter Selinger 2001-2013
</metadata>
<g transform="translate(0.000000,512.000000) scale(0.100000,-0.100000)"
fill="#000000" stroke="none">
<path d="M2530 4495 c-105 -39 -266 -97 -275 -99 -5 -2 -17 -6 -25 -9 -8 -3
-213 -76 -455 -162 -242 -86 -469 -167 -505 -180 -36 -14 -96 -35 -135 -48
-66 -23 -296 -105 -414 -148 -30 -11 -58 -22 -61 -24 -4 -2 -3 -30 1 -62 4
-32 11 -85 14 -120 3 -34 7 -70 9 -80 2 -10 7 -49 11 -88 4 -38 9 -81 10 -95
2 -14 6 -52 10 -85 3 -33 8 -71 10 -85 2 -14 6 -52 10 -85 3 -33 10 -96 15
-140 5 -44 12 -102 15 -130 3 -27 8 -68 11 -90 3 -22 7 -57 9 -79 6 -50 14
-121 20 -166 4 -38 13 -112 20 -175 12 -114 36 -329 45 -395 5 -41 11 -97 14
-125 8 -69 15 -123 21 -170 2 -22 8 -69 11 -105 4 -36 12 -105 18 -155 l11
-90 100 -56 c122 -68 191 -106 270 -149 33 -18 116 -65 185 -103 69 -39 143
-80 165 -92 64 -34 622 -343 705 -390 197 -110 188 -107 222 -89 29 15 455
251 1260 697 l326 181 7 66 c4 36 9 83 11 105 2 22 8 74 14 115 5 41 12 100
15 130 6 69 14 136 20 175 3 17 9 73 15 125 6 52 19 169 30 260 11 91 22 190
25 220 3 30 12 107 19 170 8 63 17 138 20 165 3 28 17 149 31 270 14 121 27
240 30 265 3 25 7 61 10 80 3 19 7 55 9 80 5 50 24 218 31 266 4 31 4 32 -73
58 -42 15 -106 38 -142 51 -36 13 -294 105 -575 205 -280 100 -540 192 -577
206 -38 13 -98 35 -135 48 -38 14 -131 47 -208 75 -77 27 -151 54 -165 59 -17
6 -36 5 -60 -3z"/>
</g>
</svg>
